<svg width="32" height="32" viewBox="0 0 32 32" fill="none" xmlns="http://www.w3.org/2000/svg">
<path d="M21 10C18.9233 10 16.8932 10.6158 15.1665 11.7696C13.4398 12.9233 12.094 14.5632 11.2993 16.4818C10.5045 18.4004 10.2966 20.5116 10.7018 22.5484C11.1069 24.5852 12.1069 26.4562 13.5754 27.9246C15.0438 29.3931 16.9148 30.3931 18.9516 30.7982C20.9884 31.2034 23.0996 30.9955 25.0182 30.2007C26.9368 29.406 28.5767 28.0602 29.7304 26.3335C30.8842 24.6068 31.5 22.5767 31.5 20.5C31.4968 17.7162 30.3896 15.0473 28.4211 13.0789C26.4527 11.1104 23.7838 10.0032 21 10ZM21 29C19.3189 29 17.6755 28.5015 16.2777 27.5675C14.8798 26.6335 13.7904 25.306 13.147 23.7528C12.5037 22.1996 12.3354 20.4906 12.6633 18.8417C12.9913 17.1929 13.8009 15.6783 14.9896 14.4896C16.1783 13.3008 17.6929 12.4913 19.3417 12.1633C20.9906 11.8354 22.6996 12.0037 24.2528 12.647C25.806 13.2904 27.1335 14.3798 28.0675 15.7777C29.0015 17.1755 29.5 18.8189 29.5 20.5C29.4975 22.7536 28.6012 24.9141 27.0076 26.5076C25.4141 28.1011 23.2536 28.9975 21 29Z" fill="#59AD95"/>
<path d="M21 13C19.5166 13 18.0666 13.4399 16.8332 14.264C15.5999 15.0881 14.6386 16.2594 14.0709 17.6299C13.5032 19.0003 13.3547 20.5083 13.6441 21.9632C13.9335 23.418 14.6478 24.7544 15.6967 25.8033C16.7456 26.8522 18.082 27.5665 19.5368 27.8559C20.9917 28.1453 22.4997 27.9968 23.8701 27.4291C25.2406 26.8614 26.4119 25.9001 27.236 24.6668C28.0601 23.4334 28.5 21.9834 28.5 20.5C28.4978 18.5116 27.7069 16.6052 26.3009 15.1991C24.8948 13.7931 22.9884 13.0022 21 13ZM26.5 21H21C20.8674 21 20.7402 20.9473 20.6464 20.8536C20.5527 20.7598 20.5 20.6326 20.5 20.5V15C20.5 14.8674 20.5527 14.7402 20.6464 14.6464C20.7402 14.5527 20.8674 14.5 21 14.5C21.1326 14.5 21.2598 14.5527 21.3536 14.6464C21.4473 14.7402 21.5 14.8674 21.5 15V20H26.5C26.6326 20 26.7598 20.0527 26.8536 20.1464C26.9473 20.2402 27 20.3674 27 20.5C27 20.6326 26.9473 20.7598 26.8536 20.8536C26.7598 20.9473 26.6326 21 26.5 21Z" fill="#59AD95"/>
<path d="M21 3H18.5V1.5C18.5 1.36739 18.4473 1.24021 18.3536 1.14645C18.2598 1.05268 18.1326 1 18 1C17.8674 1 17.7402 1.05268 17.6464 1.14645C17.5527 1.24021 17.5 1.36739 17.5 1.5V3H5.5V1.5C5.5 1.36739 5.44732 1.24021 5.35355 1.14645C5.25979 1.05268 5.13261 1 5 1C4.86739 1 4.74021 1.05268 4.64645 1.14645C4.55268 1.24021 4.5 1.36739 4.5 1.5V3H2C1.60231 3.00044 1.22103 3.15861 0.939822 3.43982C0.658612 3.72103 0.500437 4.10231 0.5 4.5V22C0.500437 22.3977 0.658612 22.779 0.939822 23.0602C1.22103 23.3414 1.60231 23.4996 2 23.5H21C21.3977 23.4996 21.779 23.3414 22.0602 23.0602C22.3414 22.779 22.4996 22.3977 22.5 22V4.5C22.4996 4.10231 22.3414 3.72103 22.0602 3.43982C21.779 3.15861 21.3977 3.00044 21 3ZM1.5 10.5H7.5V16H1.5V10.5ZM8.5 10.5H14.5V16H8.5V10.5ZM15.5 10.5H21.5V16H15.5V10.5ZM1.5 4.5C1.50012 4.36743 1.55284 4.24032 1.64658 4.14658C1.74032 4.05284 1.86743 4.00012 2 4H4.5V5C4.5 5.13261 4.55268 5.25979 4.64645 5.35355C4.74021 5.44732 4.86739 5.5 5 5.5C5.13261 5.5 5.25979 5.44732 5.35355 5.35355C5.44732 5.25979 5.5 5.13261 5.5 5V4H17.5V5C17.5 5.13261 17.5527 5.25979 17.6464 5.35355C17.7402 5.44732 17.8674 5.5 18 5.5C18.1326 5.5 18.2598 5.44732 18.3536 5.35355C18.4473 5.25979 18.5 5.13261 18.5 5V4H21C21.1326 4.00012 21.2597 4.05284 21.3534 4.14658C21.4472 4.24032 21.4999 4.36743 21.5 4.5V9.5H1.5V4.5ZM1.5 22V17H7.5V22.5H2C1.86743 22.4999 1.74032 22.4472 1.64658 22.3534C1.55284 22.2597 1.50012 22.1326 1.5 22ZM8.5 17H14.5V22.5H8.5V17ZM21.5 22C21.4999 22.1326 21.4472 22.2597 21.3534 22.3534C21.2597 22.4472 21.1326 22.4999 21 22.5H15.5V17H21.5V22Z" fill="#202020"/>
</svg>
