<svg width="41" height="40" viewBox="0 0 41 40" fill="none" xmlns="http://www.w3.org/2000/svg">
<rect x="1.1001" y="0.5" width="39" height="39" rx="7.5" fill="white"/>
<rect x="1.1001" y="0.5" width="39" height="39" rx="7.5" stroke="#E6E6E6"/>
<path d="M18.6001 26C18.8653 26 19.1197 25.8946 19.3072 25.7071C19.4947 25.5196 19.6001 25.2652 19.6001 25V19C19.6001 18.7348 19.4947 18.4804 19.3072 18.2929C19.1197 18.1054 18.8653 18 18.6001 18C18.3349 18 18.0805 18.1054 17.893 18.2929C17.7055 18.4804 17.6001 18.7348 17.6001 19V25C17.6001 25.2652 17.7055 25.5196 17.893 25.7071C18.0805 25.8946 18.3349 26 18.6001 26ZM28.6001 14H24.6001V13C24.6001 12.2044 24.284 11.4413 23.7214 10.8787C23.1588 10.3161 22.3957 10 21.6001 10H19.6001C18.8044 10 18.0414 10.3161 17.4788 10.8787C16.9162 11.4413 16.6001 12.2044 16.6001 13V14H12.6001C12.3349 14 12.0805 14.1054 11.893 14.2929C11.7055 14.4804 11.6001 14.7348 11.6001 15C11.6001 15.2652 11.7055 15.5196 11.893 15.7071C12.0805 15.8946 12.3349 16 12.6001 16H13.6001V27C13.6001 27.7956 13.9162 28.5587 14.4788 29.1213C15.0414 29.6839 15.8044 30 16.6001 30H24.6001C25.3957 30 26.1588 29.6839 26.7214 29.1213C27.284 28.5587 27.6001 27.7956 27.6001 27V16H28.6001C28.8653 16 29.1197 15.8946 29.3072 15.7071C29.4947 15.5196 29.6001 15.2652 29.6001 15C29.6001 14.7348 29.4947 14.4804 29.3072 14.2929C29.1197 14.1054 28.8653 14 28.6001 14ZM18.6001 13C18.6001 12.7348 18.7055 12.4804 18.893 12.2929C19.0805 12.1054 19.3349 12 19.6001 12H21.6001C21.8653 12 22.1197 12.1054 22.3072 12.2929C22.4947 12.4804 22.6001 12.7348 22.6001 13V14H18.6001V13ZM25.6001 27C25.6001 27.2652 25.4947 27.5196 25.3072 27.7071C25.1197 27.8946 24.8653 28 24.6001 28H16.6001C16.3349 28 16.0805 27.8946 15.893 27.7071C15.7055 27.5196 15.6001 27.2652 15.6001 27V16H25.6001V27ZM22.6001 26C22.8653 26 23.1197 25.8946 23.3072 25.7071C23.4947 25.5196 23.6001 25.2652 23.6001 25V19C23.6001 18.7348 23.4947 18.4804 23.3072 18.2929C23.1197 18.1054 22.8653 18 22.6001 18C22.3349 18 22.0805 18.1054 21.893 18.2929C21.7055 18.4804 21.6001 18.7348 21.6001 19V25C21.6001 25.2652 21.7055 25.5196 21.893 25.7071C22.0805 25.8946 22.3349 26 22.6001 26Z" fill="#B64747"/>
</svg>
