<svg width="19" height="20" viewBox="0 0 19 20" fill="none" xmlns="http://www.w3.org/2000/svg">
<path d="M7.6001 16C7.86531 16 8.11967 15.8946 8.3072 15.7071C8.49474 15.5196 8.6001 15.2652 8.6001 15V9C8.6001 8.73478 8.49474 8.48043 8.3072 8.29289C8.11967 8.10536 7.86531 8 7.6001 8C7.33488 8 7.08053 8.10536 6.89299 8.29289C6.70545 8.48043 6.6001 8.73478 6.6001 9V15C6.6001 15.2652 6.70545 15.5196 6.89299 15.7071C7.08053 15.8946 7.33488 16 7.6001 16ZM17.6001 4H13.6001V3C13.6001 2.20435 13.284 1.44129 12.7214 0.87868C12.1588 0.316071 11.3957 0 10.6001 0H8.6001C7.80445 0 7.04139 0.316071 6.47878 0.87868C5.91617 1.44129 5.6001 2.20435 5.6001 3V4H1.6001C1.33488 4 1.08053 4.10536 0.892991 4.29289C0.705454 4.48043 0.600098 4.73478 0.600098 5C0.600098 5.26522 0.705454 5.51957 0.892991 5.70711C1.08053 5.89464 1.33488 6 1.6001 6H2.6001V17C2.6001 17.7956 2.91617 18.5587 3.47878 19.1213C4.04139 19.6839 4.80445 20 5.6001 20H13.6001C14.3957 20 15.1588 19.6839 15.7214 19.1213C16.284 18.5587 16.6001 17.7956 16.6001 17V6H17.6001C17.8653 6 18.1197 5.89464 18.3072 5.70711C18.4947 5.51957 18.6001 5.26522 18.6001 5C18.6001 4.73478 18.4947 4.48043 18.3072 4.29289C18.1197 4.10536 17.8653 4 17.6001 4ZM7.6001 3C7.6001 2.73478 7.70545 2.48043 7.89299 2.29289C8.08053 2.10536 8.33488 2 8.6001 2H10.6001C10.8653 2 11.1197 2.10536 11.3072 2.29289C11.4947 2.48043 11.6001 2.73478 11.6001 3V4H7.6001V3ZM14.6001 17C14.6001 17.2652 14.4947 17.5196 14.3072 17.7071C14.1197 17.8946 13.8653 18 13.6001 18H5.6001C5.33488 18 5.08053 17.8946 4.89299 17.7071C4.70545 17.5196 4.6001 17.2652 4.6001 17V6H14.6001V17ZM11.6001 16C11.8653 16 12.1197 15.8946 12.3072 15.7071C12.4947 15.5196 12.6001 15.2652 12.6001 15V9C12.6001 8.73478 12.4947 8.48043 12.3072 8.29289C12.1197 8.10536 11.8653 8 11.6001 8C11.3349 8 11.0805 8.10536 10.893 8.29289C10.7055 8.48043 10.6001 8.73478 10.6001 9V15C10.6001 15.2652 10.7055 15.5196 10.893 15.7071C11.0805 15.8946 11.3349 16 11.6001 16Z" fill="#B64747"/>
</svg>
