<svg width="185" height="40" viewBox="0 0 185 40" fill="none" xmlns="http://www.w3.org/2000/svg">
<g clip-path="url(#clip0_61_6183)">
<path d="M29.4873 32.2246C29.4209 32.3681 29.3361 32.5416 29.2445 32.7336C28.7864 33.6799 27.703 35.931 27.0686 36.514C26.5166 37.0207 24.9705 37.3354 24.091 37.3354C24.0022 37.3362 23.9134 37.3308 23.8253 37.3192C23.5963 37.2868 23.239 36.9421 23.0832 36.7732C22.9275 36.6043 22.6686 36.1254 22.7396 35.82C22.7603 35.732 23.8849 34.2236 24.0246 33.9297C24.1208 33.9367 29.4873 32.2246 29.4873 32.2246Z" fill="#59AD95"/>
<path d="M0.355186 13.1734C0.623169 12.7569 1.30343 12.4492 1.99515 12.1392C2.68687 11.8292 3.40607 11.5122 3.71986 11.0842C3.83548 10.9055 3.92641 10.7116 3.99013 10.5081C4.00616 10.4595 4.02449 10.4109 4.04281 10.36C4.12527 10.0986 4.19856 9.80937 4.27186 9.51786C4.37264 9.03663 4.5009 8.51144 4.5009 8.51144C4.5009 8.51144 4.51923 8.48368 4.52839 8.46749C4.56733 8.39808 4.61313 8.33098 4.65665 8.26157C4.70255 8.15075 4.76014 8.04526 4.82844 7.94692C4.94775 7.79298 5.08633 7.65533 5.24072 7.53741C6.18209 6.63973 7.59988 6.0058 8.33282 5.75593C8.56593 5.6658 8.80373 5.58857 9.04516 5.52457C10.3095 1.86907 12.3434 -0.386701 13.397 0.0575122C13.6077 0.145429 14.1345 3.33127 13.9444 4.7981C15.2729 5.00169 15.8089 5.24463 17.4328 6.25336C17.4328 6.25336 21.393 2.5724 22.7237 2.89631C23.3101 3.03975 25.1447 5.14051 21.4915 13.4649C21.3014 13.8929 21.0196 14.2006 21.0334 14.4782C21.0739 14.6621 21.1291 14.8424 21.1983 15.0173C21.4857 15.933 21.9972 16.7606 22.6854 17.4234C23.3737 18.0863 24.2164 18.563 25.1356 18.8093C25.1356 18.8093 32.252 19.4039 34.0111 19.8805C34.0844 19.9013 37.2063 18.6196 36.5306 15.8548C36.2626 14.7559 35.9648 13.8142 34.8127 13.4811C34.1851 13.3006 32.7307 13.6685 32.3757 14.624C32.0207 15.5795 29.6959 7.3662 36.0244 8.02327C43.5187 8.80064 42.559 16.9908 40.6259 20.4612C39.6616 22.1895 37.3322 23.9849 37.5361 25.0561C37.6441 25.5273 37.8031 25.985 38.0102 26.4211C38.6767 27.6936 40.2732 30.0234 40.658 31.4092C40.8174 32.1392 40.8943 32.8851 40.887 33.6326C40.8733 34.1856 41.0473 35.2822 40.9878 35.8421C40.9443 36.2447 40.7129 37.1169 40.3808 37.3437C40.1804 37.4508 39.9542 37.4989 39.728 37.4825C39.2104 37.4825 38.5828 37.3506 38.2163 37.3437C37.7834 37.3437 36.7756 37.2951 36.5283 36.9341C36.3611 36.7028 36.6634 35.7773 36.6634 35.7773L37.2704 35.0254C37.0073 34.6237 36.7149 34.2424 36.3954 33.8848C35.9694 33.5493 35.7083 33.2717 35.4151 33.0912C34.6295 32.61 33.3125 31.6406 32.5406 31.1339C32.1944 30.9351 31.8086 30.8165 31.4114 30.7869C31.3825 30.7843 31.3533 30.7843 31.3244 30.7869C31.1205 30.8123 21.3884 33.7946 21.3884 33.7946C21.3884 33.7946 20.3165 38.0192 19.4278 39.1159C19.1284 39.4323 18.7574 39.6704 18.3467 39.81C17.7587 39.9376 17.1593 40.0043 16.5578 40.0089C16.1534 40.0315 15.7491 39.9636 15.3737 39.81C15.0118 39.6156 14.3682 38.9238 14.359 38.512C14.3498 38.1002 14.982 37.3922 15.1698 37.0105C15.5271 36.2863 15.96 34.5257 16.2372 33.2879C16.2372 33.2879 14.3224 32.9848 14.0498 32.5938C14.0498 32.5938 12.2174 30.9373 11.8441 30.1668C11.7044 29.8823 11.2509 28.8897 11.2509 28.8897C11.2509 28.8897 10.9646 30.1923 11.6013 31.0506C12.238 31.909 14.2193 34.0028 14.3956 34.4632C14.6503 35.1478 14.66 35.9007 14.4231 36.5917C14.2307 37.0544 13.0328 37.258 12.5312 37.3413C12.426 37.3583 12.3194 37.366 12.2128 37.3645C11.6311 37.3645 10.7607 37.191 10.5088 36.837C10.2797 36.52 10.6095 35.6802 10.6027 35.2799C10.5477 33.9485 10.3558 32.6265 10.03 31.3352C9.801 30.5949 9.16197 29.3617 9.01767 28.6028C9.00622 28.5496 8.54813 26.7705 8.54813 26.7705C9.02454 26.7034 8.65349 24.6581 8.39238 22.9484C7.88619 21.9975 6.38594 19.781 5.01396 19.5219C3.33048 19.2049 1.04003 17.9834 0.355186 16.815C-0.102905 16.0307 -0.134972 13.9369 0.355186 13.1734Z" fill="#59AD95"/>
<path d="M5.86351 25.2405C5.86351 25.0832 5.86351 24.9444 5.86351 24.8333C5.86351 24.7223 5.85206 24.5835 5.84519 24.4285V24.2133V23.1097C5.88871 22.5406 6.01468 22.2028 6.23686 22.0362C6.37141 21.9419 6.53116 21.891 6.69495 21.8904C7.38208 21.8673 8.43111 22.4318 9.06327 22.7742L9.25567 22.8783C9.44977 23.0085 9.63218 23.1556 9.8008 23.3179C10.0794 23.216 10.375 23.1696 10.6712 23.1814C10.9714 23.1587 11.2732 23.1949 11.5599 23.2879C11.7376 23.1142 11.9291 22.9556 12.1325 22.8136L12.3409 22.6979C13.028 22.3023 14.2214 21.6244 15.0505 21.5943C15.2468 21.5807 15.4428 21.6232 15.6163 21.7169C15.898 21.8858 16.056 22.2583 16.1133 22.8853V24.1346L16.0995 24.3822C16.0995 24.558 16.0812 24.7153 16.0766 24.8449C16.0721 24.9745 16.0766 25.1272 16.0766 25.3076C16.095 26.2331 16.1224 27.5102 15.4903 27.8156C15.341 27.8837 15.1774 27.9139 15.0139 27.9035C14.0473 27.8688 12.57 26.8161 12.0912 26.4737L11.5599 26.0873C11.2711 26.1814 10.9668 26.2176 10.6643 26.1937C10.3652 26.2085 10.0662 26.1629 9.78477 26.0596L9.28087 26.4205C8.83881 26.7282 7.53096 27.6444 6.71785 27.6166C6.58107 27.614 6.44714 27.5766 6.32847 27.5079C5.83145 27.1932 5.84977 26.0688 5.86351 25.2405Z" fill="#202020"/>
<path d="M1.69721 9.32728C1.89877 7.11778 2.88824 7.01367 2.88824 7.01367L4.5786 7.02986L7.26759 7.05994C7.26759 7.05994 9.91306 7.3075 9.95658 9.22085C9.95658 9.36198 10.1467 9.54245 10.1467 9.54245C10.1467 9.54245 14.6543 10.535 16.0331 11.2013C16.3424 11.3494 16.9493 11.8584 16.7959 12.3465C16.6424 12.8347 16.2003 11.8954 16.2003 11.8954C16.1618 11.8115 16.1117 11.7336 16.0515 11.664C15.6964 11.4049 14.3588 11.2129 14.3588 11.2129L14.0817 11.3633L13.8022 11.4003L10.0642 10.498C10.0642 10.498 9.62904 12.4784 8.89381 12.8116C8.40271 13.0761 7.83526 13.1579 7.29049 13.0429C7.29049 13.0429 4.54195 12.7607 4.6496 8.59155L4.4824 8.55222C4.45491 8.67253 4.35184 9.11211 4.26709 9.52393C4.19609 9.81545 4.1228 10.1047 4.03805 10.3661C4.01972 10.4193 4.00141 10.4656 3.98537 10.5142C3.92165 10.7177 3.83072 10.9115 3.7151 11.0903C3.40131 11.5183 2.68897 11.8329 1.99038 12.1453C1.75218 11.8584 1.53458 11.1365 1.69721 9.32728Z" fill="#202020"/>
<path d="M1.4821 12.6125C1.4821 12.6125 2.59525 12.7837 2.66855 13.0983C2.81743 13.7369 1.29427 14.6693 0.474292 14.5119C-0.345689 14.3546 0.0620165 12.867 0.458264 12.6125C0.675857 12.4737 1.4821 12.6125 1.4821 12.6125Z" fill="#202020"/>
</g>
<path d="M65.36 9.552C66.5333 9.552 67.5893 9.63733 68.528 9.808C69.488 9.97867 70.3733 10.2773 71.184 10.704L70.48 13.008C69.6907 12.6453 68.912 12.3787 68.144 12.208C67.3973 12.0373 66.5867 11.952 65.712 11.952C64.7733 11.952 63.8773 12.0907 63.024 12.368C62.1707 12.6453 61.4133 13.104 60.752 13.744C60.112 14.3627 59.6 15.184 59.216 16.208C58.832 17.2107 58.64 18.4587 58.64 19.952C58.64 22.5333 59.2267 24.496 60.4 25.84C61.5733 27.184 63.2267 27.856 65.36 27.856C66.1707 27.856 66.864 27.8133 67.44 27.728C68.0373 27.6427 68.6133 27.4933 69.168 27.28V21.68H65.36V19.376H71.92V29.104C71.0667 29.4453 70.1173 29.7333 69.072 29.968C68.0267 30.1813 66.7893 30.288 65.36 30.288C63.9733 30.288 62.672 30.064 61.456 29.616C60.2613 29.168 59.216 28.5067 58.32 27.632C57.424 26.7573 56.72 25.68 56.208 24.4C55.696 23.12 55.44 21.6373 55.44 19.952C55.44 18.2667 55.6853 16.7733 56.176 15.472C56.688 14.1707 57.3813 13.0827 58.256 12.208C59.1307 11.3333 60.176 10.672 61.392 10.224C62.608 9.776 63.9307 9.552 65.36 9.552ZM81.4612 9.84H93.6212V12.272H84.4052V18.32H92.7892V20.72H84.4052V27.568H93.7172V30H81.4612V9.84ZM115.796 9.84V12.336H109.492V30H106.548V12.336H100.372V9.84H115.796ZM126.644 9.84L129.3 18.256C129.62 19.28 129.961 20.432 130.324 21.712C130.686 22.9707 131.006 24.24 131.284 25.52H131.38C131.657 24.24 131.966 22.9707 132.308 21.712C132.67 20.4533 133.022 19.2907 133.364 18.224L135.988 9.84H140.98L134.036 30H128.628L121.492 9.84H126.644ZM148.404 9.84H161.844V13.552H153.268V17.68H161.012V21.36H153.268V26.288H161.94V30H148.404V9.84ZM184.226 9.84V13.616H178.722V30H173.858V13.616H168.482V9.84H184.226Z" fill="#202020"/>
<defs>
<clipPath id="clip0_61_6183">
<rect width="42" height="40" fill="white" transform="matrix(-1 0 0 1 42 0)"/>
</clipPath>
</defs>
</svg>
