<svg width="32" height="32" viewBox="0 0 32 32" fill="none" xmlns="http://www.w3.org/2000/svg">
<g clip-path="url(#clip0_178_10508)">
<path d="M18.3721 21.7702C18.2776 21.86 18.1518 21.9092 18.0215 21.9074C17.8912 21.9056 17.7668 21.853 17.6748 21.7607L13.5605 17.6467L12.1465 19.0608L17.9812 24.8955L27.8247 15.5701L26.4494 14.1182L18.3721 21.7702Z" fill="#59AD95"/>
<path d="M29 7.5H11C10.3372 7.50078 9.70176 7.76442 9.23309 8.23309C8.76442 8.70176 8.50078 9.3372 8.5 10V28C8.50078 28.6628 8.76442 29.2982 9.23309 29.7669C9.70176 30.2356 10.3372 30.4992 11 30.5H29C29.6628 30.4992 30.2982 30.2356 30.7669 29.7669C31.2356 29.2982 31.4992 28.6628 31.5 28V10C31.4992 9.3372 31.2356 8.70176 30.7669 8.23309C30.2982 7.76442 29.6628 7.50078 29 7.5ZM28.8755 15.9519L18.3157 25.9561C18.2211 26.0456 18.0953 26.0948 17.965 26.093C17.8347 26.0912 17.7103 26.0387 17.6182 25.9466L11.0859 19.4141C11.0395 19.3676 11.0027 19.3125 10.9775 19.2519C10.9524 19.1912 10.9395 19.1262 10.9395 19.0605C10.9395 18.9949 10.9524 18.9299 10.9775 18.8692C11.0027 18.8086 11.0395 18.7534 11.0859 18.707L13.207 16.5859C13.2534 16.5395 13.3086 16.5027 13.3692 16.4775C13.4299 16.4524 13.4949 16.4395 13.5605 16.4395C13.6262 16.4395 13.6912 16.4524 13.7519 16.4775C13.8125 16.5027 13.8676 16.5395 13.9141 16.5859L18.0378 20.7092L26.1248 13.0481C26.1723 13.0028 26.2284 12.9673 26.2897 12.9437C26.3511 12.9201 26.4165 12.9089 26.4822 12.9107C26.5479 12.9125 26.6125 12.9273 26.6725 12.9542C26.7325 12.9811 26.7865 13.0195 26.8315 13.0674L28.8945 15.2451C28.9397 15.2928 28.975 15.3489 28.9985 15.4102C29.022 15.4715 29.0332 15.5368 29.0314 15.6025C29.0296 15.6681 29.015 15.7327 28.9882 15.7927C28.9615 15.8526 28.9232 15.9067 28.8755 15.9519Z" fill="#59AD95"/>
<g clip-path="url(#clip1_178_10508)">
<path d="M26 14.25C22.9673 14.25 20.5 16.0444 20.5 18.25C20.5 20.4556 22.9673 22.25 26 22.25C29.0327 22.25 31.5 20.4556 31.5 18.25C31.5 16.0444 29.0327 14.25 26 14.25ZM26 20.75C23.8691 20.75 22 19.5815 22 18.25C22 18.1174 22.0527 17.9902 22.1464 17.8964C22.2402 17.8027 22.3674 17.75 22.5 17.75C22.6326 17.75 22.7598 17.8027 22.8536 17.8964C22.9473 17.9902 23 18.1174 23 18.25C23 18.854 24.2598 19.75 26 19.75C26.1326 19.75 26.2598 19.8027 26.3536 19.8964C26.4473 19.9902 26.5 20.1174 26.5 20.25C26.5 20.3826 26.4473 20.5098 26.3536 20.6036C26.2598 20.6973 26.1326 20.75 26 20.75ZM29.5 18.75C29.4343 18.75 29.3693 18.7371 29.3086 18.712C29.2479 18.6869 29.1928 18.6501 29.1464 18.6036C29.0999 18.5572 29.0631 18.5021 29.038 18.4414C29.0129 18.3807 29 18.3157 29 18.25C29 17.646 27.7402 16.75 26 16.75C25.8674 16.75 25.7402 16.6973 25.6464 16.6036C25.5527 16.5098 25.5 16.3826 25.5 16.25C25.5 16.1174 25.5527 15.9902 25.6464 15.8964C25.7402 15.8027 25.8674 15.75 26 15.75C28.1309 15.75 30 16.9185 30 18.25C30 18.3157 29.9871 18.3807 29.962 18.4414C29.9369 18.5021 29.9001 18.5572 29.8536 18.6036C29.8072 18.6501 29.7521 18.6869 29.6914 18.712C29.6307 18.7371 29.5657 18.75 29.5 18.75Z" fill="#59AD95"/>
<path d="M25.9999 23.25C24.9736 23.2811 23.9527 23.0899 23.0072 22.6896C22.0617 22.2892 21.214 21.6891 20.5221 20.9305C20.241 23.5003 23.1344 25.25 25.9999 25.25C28.832 25.25 31.7612 23.5227 31.4776 20.9305C30.7858 21.6891 29.938 22.2892 28.9925 22.6896C28.0471 23.0899 27.0262 23.2811 25.9999 23.25Z" fill="#59AD95"/>
<path d="M25.9999 26.25C24.9736 26.2811 23.9527 26.0899 23.0072 25.6896C22.0617 25.2892 21.214 24.6891 20.5221 23.9305C20.241 26.5003 23.1344 28.25 25.9999 28.25C28.832 28.25 31.7612 26.5227 31.4776 23.9305C30.7858 24.6891 29.938 25.2892 28.9925 25.6896C28.0471 26.0899 27.0262 26.2811 25.9999 26.25Z" fill="#59AD95"/>
<path d="M25.9999 29.25C24.9736 29.2811 23.9527 29.0899 23.0072 28.6896C22.0617 28.2892 21.214 27.6891 20.5221 26.9305C20.241 29.5003 23.1344 31.25 25.9999 31.25C28.832 31.25 31.7612 29.5227 31.4776 26.9305C30.7858 27.6891 29.938 28.2892 28.9925 28.6896C28.0471 29.0899 27.0262 29.2811 25.9999 29.25Z" fill="#59AD95"/>
<path d="M14 17.25C10.9673 17.25 8.5 19.0444 8.5 21.25C8.5 23.4556 10.9673 25.25 14 25.25C17.0327 25.25 19.5 23.4556 19.5 21.25C19.5 19.0444 17.0327 17.25 14 17.25ZM14 23.75C11.8691 23.75 10 22.5815 10 21.25C10 21.1174 10.0527 20.9902 10.1464 20.8964C10.2402 20.8027 10.3674 20.75 10.5 20.75C10.6326 20.75 10.7598 20.8027 10.8536 20.8964C10.9473 20.9902 11 21.1174 11 21.25C11 21.854 12.2598 22.75 14 22.75C14.1326 22.75 14.2598 22.8027 14.3536 22.8964C14.4473 22.9902 14.5 23.1174 14.5 23.25C14.5 23.3826 14.4473 23.5098 14.3536 23.6036C14.2598 23.6973 14.1326 23.75 14 23.75ZM17.5 21.75C17.4343 21.75 17.3693 21.7371 17.3086 21.712C17.2479 21.6869 17.1928 21.6501 17.1464 21.6036C17.0999 21.5572 17.0631 21.5021 17.038 21.4414C17.0129 21.3807 17 21.3157 17 21.25C17 20.646 15.7402 19.75 14 19.75C13.8674 19.75 13.7402 19.6973 13.6464 19.6036C13.5527 19.5098 13.5 19.3826 13.5 19.25C13.5 19.1174 13.5527 18.9902 13.6464 18.8964C13.7402 18.8027 13.8674 18.75 14 18.75C16.1309 18.75 18 19.9185 18 21.25C18 21.3157 17.9871 21.3807 17.962 21.4414C17.9369 21.5021 17.9001 21.5572 17.8536 21.6036C17.8072 21.6501 17.7521 21.6869 17.6914 21.712C17.6307 21.7371 17.5657 21.75 17.5 21.75Z" fill="#59AD95"/>
<path d="M13.9999 26.25C12.9736 26.2811 11.9527 26.0899 11.0072 25.6896C10.0617 25.2892 9.21399 24.6891 8.52213 23.9305C8.24104 26.5003 11.1344 28.25 13.9999 28.25C16.832 28.25 19.7612 26.5227 19.4776 23.9305C18.7858 24.6891 17.938 25.2892 16.9925 25.6896C16.0471 26.0899 15.0262 26.2811 13.9999 26.25Z" fill="#59AD95"/>
<path d="M13.9999 29.25C12.9736 29.2811 11.9527 29.0899 11.0072 28.6896C10.0617 28.2892 9.21399 27.6891 8.52213 26.9305C8.24104 29.5003 11.1344 31.25 13.9999 31.25C16.832 31.25 19.7612 29.5227 19.4776 26.9305C18.7858 27.6891 17.938 28.2892 16.9925 28.6896C16.0471 29.0899 15.0262 29.2811 13.9999 29.25Z" fill="#59AD95"/>
<path d="M24 6.75V5.25C23.9996 4.85231 23.8414 4.47103 23.5602 4.18982C23.279 3.90861 22.8977 3.75043 22.5 3.75V2.25C22.4996 1.85231 22.3414 1.47103 22.0602 1.18982C21.779 0.908609 21.3977 0.750434 21 0.75H5C4.60231 0.750434 4.22103 0.908609 3.93982 1.18982C3.65861 1.47103 3.50043 1.85231 3.5 2.25V3.75C3.10231 3.75043 2.72103 3.90861 2.43982 4.18982C2.15861 4.47103 2.00043 4.85231 2 5.25V6.75C1.60231 6.75043 1.22103 6.90861 0.939819 7.18982C0.658609 7.47103 0.500434 7.85231 0.5 8.25V21.25C0.500434 21.6477 0.658609 22.029 0.939819 22.3102C1.22103 22.5914 1.60231 22.7496 2 22.75H24C24.3977 22.7496 24.779 22.5914 25.0602 22.3102C25.3414 22.029 25.4996 21.6477 25.5 21.25V8.25C25.4996 7.85231 25.3414 7.47103 25.0602 7.18982C24.779 6.90861 24.3977 6.75043 24 6.75ZM21.5399 21.75H4.46005C4.35113 21.0037 4.00421 20.3124 3.47089 19.7791C2.93756 19.2458 2.24633 18.8989 1.5 18.7899V10.71C2.24635 10.6012 2.93762 10.2543 3.47096 9.72095C4.0043 9.18761 4.35121 8.49635 4.46008 7.75H21.5399C21.6488 8.49635 21.9957 9.18761 22.5291 9.72094C23.0624 10.2543 23.7537 10.6012 24.5 10.71V18.7899C23.7537 18.8989 23.0624 19.2458 22.5291 19.7791C21.9958 20.3124 21.6489 21.0037 21.5399 21.75ZM24.5 8.25V9.69946C24.0201 9.60054 23.5797 9.36319 23.2333 9.01673C22.8868 8.67026 22.6495 8.22988 22.5505 7.75H24C24.1326 7.75013 24.2597 7.80285 24.3534 7.89659C24.4471 7.99033 24.4999 8.11743 24.5 8.25ZM4.5 2.25C4.50013 2.11743 4.55285 1.99033 4.64659 1.89659C4.74033 1.80285 4.86743 1.75013 5 1.75H21C21.1326 1.75013 21.2597 1.80285 21.3534 1.89659C21.4471 1.99033 21.4999 2.11743 21.5 2.25V3.75H4.5V2.25ZM3 5.25C3.00013 5.11743 3.05285 4.99033 3.14659 4.89659C3.24033 4.80285 3.36743 4.75013 3.5 4.75H22.5C22.6326 4.75013 22.7597 4.80285 22.8534 4.89659C22.9471 4.99033 22.9999 5.11743 23 5.25V6.75H3V5.25ZM2 7.75H3.44947C3.35054 8.22988 3.11319 8.67026 2.76673 9.01673C2.42026 9.36319 1.97988 9.60054 1.5 9.69946V8.25C1.50013 8.11743 1.55285 7.99033 1.64659 7.89659C1.74033 7.80285 1.86743 7.75013 2 7.75ZM1.5 21.25V19.8005C1.97988 19.8995 2.42026 20.1368 2.76673 20.4833C3.11319 20.8297 3.35054 21.2701 3.44947 21.75H2C1.86742 21.7499 1.74029 21.6972 1.64654 21.6035C1.5528 21.5097 1.50009 21.3826 1.5 21.25ZM24 21.75H22.5505C22.6495 21.2701 22.8868 20.8297 23.2333 20.4833C23.5797 20.1368 24.0201 19.8995 24.5 19.8005V21.25C24.4999 21.3826 24.4472 21.5097 24.3535 21.6035C24.2597 21.6972 24.1326 21.7499 24 21.75Z" fill="#202020"/>
<path d="M13 10C10.2432 10 8 12.0187 8 14.5C8 16.9814 10.2432 19 13 19C15.7568 19 18 16.9814 18 14.5C18 12.0187 15.7568 10 13 10ZM13 18.25C10.7944 18.25 9 16.5676 9 14.5C9 12.4322 10.7944 10.75 13 10.75C15.2056 10.75 17 12.4322 17 14.5C17 16.5676 15.2056 18.25 13 18.25Z" fill="#202020"/>
<path d="M13.7397 14.1054C13.6347 14.0739 13.5272 14.0399 13.4201 14.0057V12.4801C13.5667 12.5158 13.7039 12.5748 13.8245 12.6541C13.9142 12.7227 14.0321 12.7584 14.1526 12.7533C14.273 12.7483 14.3863 12.7029 14.4676 12.6271C14.5488 12.5513 14.5916 12.4512 14.5865 12.3486C14.5814 12.2461 14.5289 12.1494 14.4404 12.0797C14.1459 11.8759 13.7944 11.7405 13.4201 11.6869V11.3889C13.4201 11.2857 13.372 11.1868 13.2863 11.1139C13.2006 11.041 13.0843 11 12.9631 11C12.8419 11 12.7257 11.041 12.6399 11.1139C12.5542 11.1868 12.5061 11.2857 12.5061 11.3889V11.717C12.1771 11.7754 11.8765 11.9169 11.6436 12.1232C11.4107 12.3294 11.2565 12.5906 11.2011 12.8727C11.1402 13.1003 11.1539 13.3378 11.2408 13.5593C11.3277 13.7808 11.4844 13.9777 11.6938 14.1286C11.9446 14.289 12.2174 14.423 12.5061 14.5276V16.5001C12.2172 16.4754 11.9419 16.3835 11.7103 16.2344C11.6601 16.206 11.6038 16.1863 11.5446 16.1765C11.4854 16.1667 11.4245 16.167 11.3654 16.1773C11.3063 16.1876 11.2502 16.2077 11.2003 16.2366C11.1504 16.2654 11.1077 16.3024 11.0747 16.3453C11.0416 16.3882 11.0189 16.4363 11.0078 16.4868C10.9967 16.5372 10.9974 16.589 11.01 16.6392C11.0225 16.6894 11.0466 16.737 11.0809 16.7793C11.1151 16.8215 11.1589 16.8576 11.2096 16.8854C11.5885 17.1201 12.0383 17.258 12.5061 17.283V17.6111C12.5061 17.7143 12.5542 17.8132 12.64 17.8861C12.7257 17.959 12.8419 18 12.9631 18C13.0843 18 13.2006 17.959 13.2863 17.8861C13.372 17.8132 13.4201 17.7143 13.4201 17.6111V17.2452C13.8109 17.166 14.1658 16.991 14.441 16.7419C14.7161 16.4927 14.8993 16.1805 14.9679 15.8436C15.0509 15.476 14.9715 15.0953 14.7448 14.7745C14.5181 14.4537 14.1602 14.2154 13.7397 14.1054ZM12.2579 13.5166C12.1819 13.4526 12.1272 13.3726 12.0994 13.2848C12.0716 13.197 12.0716 13.1044 12.0995 13.0166C12.1215 12.9161 12.1694 12.8211 12.2397 12.7382C12.31 12.6553 12.401 12.5867 12.5061 12.5373V13.6537C12.4199 13.6128 12.337 13.5669 12.2579 13.5166ZM14.0664 15.7147C14.0356 15.8701 13.9606 16.0167 13.848 16.1417C13.7353 16.2667 13.5884 16.3664 13.4201 16.4321V14.8341L13.4353 14.8388C13.6509 14.8902 13.8357 15.009 13.9527 15.1714C14.0698 15.3338 14.1103 15.5279 14.0664 15.7147Z" fill="#202020"/>
</g>
</g>
<defs>
<clipPath id="clip0_178_10508">
<rect width="32" height="32" fill="white"/>
</clipPath>
<clipPath id="clip1_178_10508">
<rect width="32" height="32" fill="white"/>
</clipPath>
</defs>
</svg>
