<svg width="32" height="32" viewBox="0 0 32 32" fill="none" xmlns="http://www.w3.org/2000/svg">
<path d="M18.3721 21.7702C18.2776 21.86 18.1518 21.9092 18.0215 21.9074C17.8912 21.9056 17.7668 21.853 17.6748 21.7607L13.5605 17.6467L12.1465 19.0608L17.9812 24.8955L27.8247 15.5701L26.4494 14.1182L18.3721 21.7702Z" fill="#59AD95"/>
<path d="M29 7.5H11C10.3372 7.50078 9.70176 7.76442 9.23309 8.23309C8.76442 8.70176 8.50078 9.3372 8.5 10V28C8.50078 28.6628 8.76442 29.2982 9.23309 29.7669C9.70176 30.2356 10.3372 30.4992 11 30.5H29C29.6628 30.4992 30.2982 30.2356 30.7669 29.7669C31.2356 29.2982 31.4992 28.6628 31.5 28V10C31.4992 9.3372 31.2356 8.70176 30.7669 8.23309C30.2982 7.76442 29.6628 7.50078 29 7.5ZM28.8755 15.9519L18.3157 25.9561C18.2211 26.0456 18.0953 26.0948 17.965 26.093C17.8347 26.0912 17.7103 26.0387 17.6182 25.9466L11.0859 19.4141C11.0395 19.3676 11.0027 19.3125 10.9775 19.2519C10.9524 19.1912 10.9395 19.1262 10.9395 19.0605C10.9395 18.9949 10.9524 18.9299 10.9775 18.8692C11.0027 18.8086 11.0395 18.7534 11.0859 18.707L13.207 16.5859C13.2534 16.5395 13.3086 16.5027 13.3692 16.4775C13.4299 16.4524 13.4949 16.4395 13.5605 16.4395C13.6262 16.4395 13.6912 16.4524 13.7519 16.4775C13.8125 16.5027 13.8676 16.5395 13.9141 16.5859L18.0378 20.7092L26.1248 13.0481C26.1723 13.0028 26.2284 12.9673 26.2897 12.9437C26.3511 12.9201 26.4165 12.9089 26.4822 12.9107C26.5479 12.9125 26.6125 12.9273 26.6725 12.9542C26.7325 12.9811 26.7865 13.0195 26.8315 13.0674L28.8945 15.2451C28.9397 15.2928 28.975 15.3489 28.9985 15.4102C29.022 15.4715 29.0332 15.5368 29.0314 15.6025C29.0296 15.6681 29.015 15.7327 28.9882 15.7927C28.9615 15.8526 28.9232 15.9067 28.8755 15.9519Z" fill="#59AD95"/>
<path d="M19.3534 5.14633L15.8537 1.64664C15.7595 1.55341 15.6325 1.50078 15.5 1.5H2C1.60231 1.50043 1.22103 1.65861 0.939819 1.93982C0.658609 2.22103 0.500434 2.60231 0.5 3V25C0.500434 25.3977 0.658609 25.779 0.939819 26.0602C1.22103 26.3414 1.60231 26.4996 2 26.5H18C18.3977 26.4996 18.779 26.3414 19.0602 26.0602C19.3414 25.779 19.4996 25.3977 19.5 25V5.5C19.4992 5.36748 19.4466 5.24052 19.3534 5.14633ZM16 3.20703L17.793 5H16V3.20703ZM18.5 25C18.4998 25.1326 18.4471 25.2596 18.3534 25.3534C18.2596 25.4471 18.1326 25.4998 18 25.5H2C1.86744 25.4998 1.74037 25.4471 1.64664 25.3534C1.55291 25.2596 1.50017 25.1326 1.5 25V3C1.50017 2.86744 1.55291 2.74037 1.64664 2.64664C1.74037 2.55291 1.86744 2.50017 2 2.5H15V5.5C15 5.63261 15.0527 5.75979 15.1464 5.85355C15.2402 5.94732 15.3674 6 15.5 6H18.5V25Z" fill="#202020"/>
<path d="M5 14H15C15.1326 14 15.2598 13.9473 15.3536 13.8536C15.4473 13.7598 15.5 13.6326 15.5 13.5C15.4987 12.4363 15.1587 11.4006 14.5293 10.543C13.8999 9.68547 13.0138 9.05058 11.9994 8.73036C12.4524 8.32538 12.7718 7.79239 12.9152 7.20192C13.0587 6.61144 13.0194 5.99133 12.8027 5.42366C12.5859 4.85599 12.2019 4.36751 11.7014 4.02289C11.201 3.67827 10.6076 3.49374 10 3.49374C9.39235 3.49374 8.79903 3.67827 8.29857 4.02289C7.7981 4.36751 7.41408 4.85599 7.19734 5.42366C6.98059 5.99133 6.94134 6.61144 7.08478 7.20192C7.22822 7.79239 7.54759 8.32538 8.00061 8.73036C6.98622 9.05058 6.10013 9.68547 5.47074 10.543C4.84135 11.4006 4.50134 12.4363 4.5 13.5C4.5 13.6326 4.55268 13.7598 4.64645 13.8536C4.74021 13.9473 4.86739 14 5 14ZM8 6.50001C8 6.10445 8.1173 5.71777 8.33706 5.38887C8.55682 5.05997 8.86918 4.80363 9.23463 4.65225C9.60009 4.50088 10.0022 4.46127 10.3902 4.53844C10.7781 4.61561 11.1345 4.80609 11.4142 5.0858C11.6939 5.3655 11.8844 5.72187 11.9616 6.10983C12.0387 6.49779 11.9991 6.89993 11.8478 7.26538C11.6964 7.63083 11.44 7.94319 11.1111 8.16295C10.7822 8.38271 10.3956 8.50001 10 8.50001C9.46975 8.49941 8.9614 8.2885 8.58646 7.91356C8.21151 7.53862 8.00061 7.03026 8 6.50001ZM9.5 9.50001H10.5C11.4739 9.5013 12.4141 9.85733 13.1446 10.5015C13.8751 11.1457 14.3459 12.0339 14.469 13H5.531C5.65412 12.0339 6.12494 11.1457 6.85544 10.5015C7.58593 9.85733 8.52605 9.5013 9.5 9.50001Z" fill="#202020"/>
<path d="M3.5 19H12.5C12.6326 19 12.7598 18.9473 12.8536 18.8536C12.9473 18.7598 13 18.6326 13 18.5C13 18.3674 12.9473 18.2402 12.8536 18.1464C12.7598 18.0527 12.6326 18 12.5 18H3.5C3.36739 18 3.24021 18.0527 3.14645 18.1464C3.05268 18.2402 3 18.3674 3 18.5C3 18.6326 3.05268 18.7598 3.14645 18.8536C3.24021 18.9473 3.36739 19 3.5 19Z" fill="#202020"/>
<path d="M12.5 23H3.5C3.36739 23 3.24021 23.0527 3.14645 23.1464C3.05268 23.2402 3 23.3674 3 23.5C3 23.6326 3.05268 23.7598 3.14645 23.8536C3.24021 23.9473 3.36739 24 3.5 24H12.5C12.6326 24 12.7598 23.9473 12.8536 23.8536C12.9473 23.7598 13 23.6326 13 23.5C13 23.3674 12.9473 23.2402 12.8536 23.1464C12.7598 23.0527 12.6326 23 12.5 23Z" fill="#202020"/>
<path d="M3 16C3 16.1326 3.05268 16.2598 3.14645 16.3536C3.24021 16.4473 3.36739 16.5 3.5 16.5H16.5C16.6326 16.5 16.7598 16.4473 16.8536 16.3536C16.9473 16.2598 17 16.1326 17 16C17 15.8674 16.9473 15.7402 16.8536 15.6464C16.7598 15.5527 16.6326 15.5 16.5 15.5H3.5C3.36739 15.5 3.24021 15.5527 3.14645 15.6464C3.05268 15.7402 3 15.8674 3 16Z" fill="#202020"/>
<path d="M16.5 20.5H3.5C3.36739 20.5 3.24021 20.5527 3.14645 20.6464C3.05268 20.7402 3 20.8674 3 21C3 21.1326 3.05268 21.2598 3.14645 21.3536C3.24021 21.4473 3.36739 21.5 3.5 21.5H16.5C16.6326 21.5 16.7598 21.4473 16.8536 21.3536C16.9473 21.2598 17 21.1326 17 21C17 20.8674 16.9473 20.7402 16.8536 20.6464C16.7598 20.5527 16.6326 20.5 16.5 20.5Z" fill="#202020"/>
</svg>
